<svg xmlns="http://www.w3.org/2000/svg" viewBox="0 0 800 1000" fill="none">
  <rect width="800" height="1000" fill="#2d6a4f"/>
  <rect width="800" height="1000" fill="url(#grad)" opacity="0.7"/>
  <defs>
    <linearGradient id="grad" x1="0" y1="0" x2="800" y2="1000">
      <stop offset="0%" stop-color="#40916c"/>
      <stop offset="100%" stop-color="#1b4332"/>
    </linearGradient>
  </defs>
  <!-- Abstract shapes representing people/community -->
  <circle cx="400" cy="350" r="120" fill="#52b788" opacity="0.3"/>
  <circle cx="300" cy="400" r="80" fill="#d4a843" opacity="0.25"/>
  <circle cx="500" cy="420" r="90" fill="#52b788" opacity="0.2"/>
  <!-- Figures -->
  <circle cx="350" cy="340" r="35" fill="#f0ebe3" opacity="0.9"/>
  <rect x="325" y="380" width="50" height="80" rx="20" fill="#f0ebe3" opacity="0.8"/>
  <circle cx="450" cy="360" r="30" fill="#f0ebe3" opacity="0.85"/>
  <rect x="428" y="395" width="44" height="70" rx="18" fill="#f0ebe3" opacity="0.75"/>
  <circle cx="400" cy="300" r="40" fill="#f0ebe3" opacity="0.95"/>
  <rect x="372" y="345" width="56" height="90" rx="22" fill="#f0ebe3" opacity="0.85"/>
  <!-- Hearts -->
  <path d="M380 550c-20-25-50-25-50 0s50 50 50 50 50-25 50-50-30-25-50 0z" fill="#d4a843" opacity="0.6"/>
  <path d="M250 600c-12-15-30-15-30 0s30 30 30 30 30-15 30-30-18-15-30 0z" fill="#52b788" opacity="0.4"/>
  <path d="M530 580c-15-18-38-18-38 0s38 38 38 38 38-18 38-38-23-18-38 0z" fill="#d4a843" opacity="0.4"/>
  <!-- Text -->
  <text x="400" y="750" text-anchor="middle" fill="white" font-family="sans-serif" font-size="36" font-weight="bold" opacity="0.9">Ellia Foundation</text>
  <text x="400" y="790" text-anchor="middle" fill="white" font-family="sans-serif" font-size="18" opacity="0.6">Together We Can</text>
</svg>
